# xmcd
#
# Track frame offsets:
#	150
#	16639
#	33787
#	48783
#	62554
#	75699
#	91783
#	106192
#	121174
#	137019
#	146561
#	161007
#
# Disc length: 2416 seconds
#
# Revision: 6
# Processed by: cddbd v1.5.2PL0 Copyright (c) Steve Scherf et al.
# Submitted via: EasyCDDAExtractor 10.2.0.1
#
DISCID=85096e0c
DTITLE=Gino and Geno - Gino and Geno Ela Chorou De Amor
DYEAR=2002
DGENRE=Sertanejo
TTITLE0=Ela Chorou De Amor
TTITLE1=Mulher Que Não Dá Voa
TTITLE2=Deixe Seu Recado
TTITLE3=Indo Prá Goiania
TTITLE4=Sou Feio Mas Tô Na Moda
TTITLE5=Pinga Na Garganta
TTITLE6=O Que É Que Ela Tem
TTITLE7=O Gato Comeu
TTITLE8=Tição Aceso
TTITLE9=Trem Tá Feio
TTITLE10=Nóis Não Vive É Sem Dinheiro
TTITLE11=Nossa Senhora Aparecida
EXTD=
EXTT0=
EXTT1=
EXTT2=
EXTT3=
EXTT4=
EXTT5=
EXTT6=
EXTT7=
EXTT8=
EXTT9=
EXTT10=
EXTT11=
PLAYORDER=
